<svg id="Layer_1" data-name="Layer 1" xmlns="http://www.w3.org/2000/svg" viewBox="0 0 9.6 14.35"><defs><style>.cls-1{fill:none;stroke:#f99a03;stroke-linecap:round;stroke-miterlimit:10;stroke-width:0.75px;}.cls-2{fill:#3c658e;}</style></defs><title>favicon</title><g id="Layer_3" data-name="Layer 3"><path class="cls-1" d="M4.28,11.25s3.28,2.22,6.31.58" transform="translate(-3.4 -0.65)"/></g><g id="Layer_5" data-name="Layer 5"><path class="cls-1" d="M5.77,5.85a7.27,7.27,0,0,0,1.72.67A33,33,0,0,1,11,7.34c.53.23.84.25,1.16.69" transform="translate(-3.4 -0.65)"/></g><g id="Layer_4" data-name="Layer 4"><path class="cls-1" d="M5,2.28A4.75,4.75,0,0,1,7.07,1.19a6,6,0,0,1,3.54.23,7.56,7.56,0,0,1,1.73.91" transform="translate(-3.4 -0.65)"/></g><g id="Layer_2" data-name="Layer 2"><path class="cls-2" d="M3.4,13.51l.66-1.23A8.25,8.25,0,0,0,7.34,13.6a5,5,0,0,0,2.94-.54,2,2,0,0,0,1.15-1.58A1.48,1.48,0,0,0,10.71,10S10.4,9.55,8,9.22A7.07,7.07,0,0,1,4.61,8.08a3,3,0,0,1-.53-4.25A4.58,4.58,0,0,1,6.39,2.5,7.28,7.28,0,0,1,10,2.5a7.45,7.45,0,0,1,2.7,1.37L12,5A6.14,6.14,0,0,0,8.21,3.64a6,6,0,0,0-1.35.15s-2,.44-1.91,2A1.37,1.37,0,0,0,5.79,7a8.76,8.76,0,0,0,2.12.68c1.14.21,3.71.41,4.62,2a3.36,3.36,0,0,1,.2,3s-.67,1.77-3.44,2.22A7.4,7.4,0,0,1,3.4,13.51Z" transform="translate(-3.4 -0.65)"/></g></svg>