<?xml version="1.0" encoding="utf-8"?>
<!-- Generator: Adobe Illustrator 24.0.3, SVG Export Plug-In . SVG Version: 6.00 Build 0)  -->
<svg version="1.1" xmlns="http://www.w3.org/2000/svg" xmlns:xlink="http://www.w3.org/1999/xlink" x="0px" y="0px"
	 viewBox="0 0 360 360" style="enable-background:new 0 0 360 360;" xml:space="preserve">
<style type="text/css">
	.st0{fill:none;stroke:#F99A03;stroke-width:13;stroke-linecap:round;stroke-miterlimit:10;}
	.st1{fill:#3C658E;}
</style>
<g id="Layer_3">
	<path class="st0" d="M102.96,242.25c0,0,64.5,45.54,124.1,11.87"/>
</g>
<g id="Layer_5">
	<path class="st0" d="M132.31,132.13c0,0,17.6,10.19,33.69,13.55c22.18,4.63,59.8,12.44,69.45,16.78c10.53,4.73,16.71,5.14,23,14.21
		"/>
</g>
<g id="Layer_4">
	<path class="st0" d="M116.68,59.16c0,0,17.03-16.89,41.08-22.35c16.43-3.73,33.86-6.69,69.75,4.69
		c10.24,4.27,24.57,10.89,33.92,18.67"/>
</g>
<g id="Layer_2">
	<path class="st1" d="M85.65,288.5l13.04-25.04c0,0,30.51,22.69,64.42,26.86c33.9,4.17,57.9-10.95,57.9-10.95
		s20.86-9.39,22.69-32.34c1.83-22.95-14.34-30.77-14.34-30.77s-6-8.61-53.46-15.39s-66.5-23.21-66.5-23.21s-45.9-34.43-10.43-86.85
		c14.87-20.08,45.38-27.12,45.38-27.12s29.99-10.17,71.72,0c23.47,5.48,47.47,22.69,53.2,27.91c-2.35,3.65-15.13,23.73-15.13,23.73
		s-27.38-26.86-73.81-28.43c-15.13,0-26.6,3.13-26.6,3.13s-38.86,8.87-37.56,40.16c0.52,18.78,16.43,25.04,16.43,25.04
		s19.22,9.65,41.69,13.82c22.47,4.17,73.07,8.35,91.06,40.16s3.91,61.81,3.91,61.81s-13.21,36.01-67.81,45.23
		S118.08,309.71,85.65,288.5z"/>
</g>
</svg>
